<svg xmlns="http://www.w3.org/2000/svg" aria-hidden="true" overflow="hidden" style="width:0;height:0;position:absolute"><defs><symbol id="truzyb" viewBox="0 0 20 32"><path fill="var(--color1, #fff)" d="M9.005 30.888a8.64 8.64 0 0 1-3.414-5.351H0V2.42c2.991 1.443 5.153 4.599 5.388 7.876l.846 6.493-.407-.045c-.893 0-1.676.812-1.676 1.608 0 .752.595 1.383 1.378 1.548l1.018.226c1.676-3.051 2.631-6.042 2.631-8.973 0-2.645-.36-5.291-.423-7.996 0-1.202.486-2.3 1.253-3.156.783.857 1.253 1.954 1.253 3.156 0 2.705-.423 5.351-.423 7.996 0 2.931.955 5.922 2.631 8.973l1.018-.226c.783-.165 1.378-.812 1.378-1.548 0-.812-.783-1.608-1.676-1.608l-.423.06.846-6.493c.423-3.277 2.396-6.448 5.388-7.876v23.117h-5.576c-.423 2.179-1.613 4.148-3.414 5.351-.423.286-.783.631-1.018 1.097-.219-.466-.579-.812-.987-1.112zM2.647 17.556c.235-.857.893-1.608 1.738-2.074l-.658-5.351a8.288 8.288 0 0 0-2.036-4.374v11.784h.955v.015zm2.819 6.373c0-.812.125-1.548.298-2.3l-.783-.18c-1.143-.346-2.036-1.203-2.334-2.3h-.955v4.78h3.774zm3.712 0c0-.977-.783-1.834-1.801-1.954-.172.631-.298 1.263-.298 1.954h2.099zm0 1.623H7.314c.298 1.263.955 2.42 1.864 3.397v-3.397zm2.631-5.005c-.72-1.262-1.378-2.585-1.801-3.968-.423 1.383-1.081 2.706-1.801 3.968.72.165 1.316.631 1.801 1.157.486-.526 1.081-.992 1.801-1.157zm1.143 3.382c0-.691-.125-1.323-.297-1.954-1.018.12-1.801.977-1.801 1.954h2.099zm-.235 1.623h-1.864v3.397c.908-.992 1.566-2.134 1.864-3.397zm5.623-1.623v-4.78h-.955c-.298 1.097-1.206 1.954-2.334 2.3l-.783.18c.172.752.298 1.488.298 2.3h3.774zm0-6.373V5.757c-1.081 1.202-1.864 2.706-2.036 4.374l-.658 5.351c.846.466 1.504 1.203 1.739 2.074h.955z"/></symbol><symbol id="icon-auth-user" viewBox="0 0 32 32"><path d="M15.71 12.71a6 6 0 1 0-7.42 0 10 10 0 0 0-6.22 8.18 1 1 0 0 0 2 .22 8 8 0 0 1 15.9 0 1 1 0 0 0 1 .89h.11a1 1 0 0 0 .88-1.1 10 10 0 0 0-6.25-8.19ZM12 12a4 4 0 1 1 4-4 4 4 0 0 1-4 4Z"/></symbol><symbol id="icon-auth-mail" viewBox="0 0 32 32"><path d="M6.4 4.248c-.475.049-1.258.195-1.51.282-.931.32-1.833.997-2.374 1.782-.501.726-.687 1.19-.861 2.142-.104.568-.107.798-.106 7.333.001 6.435.018 7.322.16 8.054a4.847 4.847 0 0 0 1.997 3.023c.658.445 1.16.646 2 .802.474.089 1.15.095 10.294.095s9.819-.006 10.294-.095c.869-.162 1.357-.362 2.061-.848a4.808 4.808 0 0 0 1.935-2.977c.145-.755.161-1.539.161-8.026.001-6.561-.002-6.792-.106-7.36-.138-.757-.225-1.023-.506-1.56-.395-.754-.882-1.307-1.544-1.755-.634-.43-1.141-.638-1.947-.8-.417-.085-1.216-.093-10.106-.101-5.31-.005-9.737 0-9.84.01zm18.537 2.256c.512.027 1.062.087 1.254.137.845.218 1.614.981 1.83 1.811.065.251.069.334.018.383-.198.19-11.107 7.776-11.387 7.919-.265.135-.401.17-.651.17s-.386-.035-.651-.17c-.28-.143-11.19-7.729-11.387-7.919-.051-.05-.049-.121.008-.338.111-.422.296-.754.609-1.094.576-.624 1.114-.831 2.328-.895 1.091-.057 16.959-.061 18.031-.005zm-17.84 7.322c1.77 1.24 3.216 2.273 3.211 2.298-.005.024-1.456 1.351-3.225 2.949l-3.217 2.905-.035-.23c-.054-.338-.051-10.175.001-10.175.025 0 1.495 1.014 3.265 2.253zm21.113 2.748c-.002 2.75-.019 5.09-.04 5.202l-.037.202-3.217-2.905c-1.769-1.598-3.221-2.925-3.225-2.949-.008-.048 6.4-4.551 6.477-4.551.025 0 .043 2.249.042 5zm-14.972 1.541c1.325.896 1.801 1.082 2.762 1.082.962 0 1.438-.186 2.767-1.085.507-.344.945-.618.973-.609s1.789 1.587 3.915 3.507l3.865 3.49-.2.206a2.603 2.603 0 0 1-1.131.653c-.61.158-2.051.184-10.189.184s-9.578-.026-10.189-.184a2.61 2.61 0 0 1-1.131-.651l-.2-.206 3.88-3.504c2.134-1.928 3.897-3.505 3.919-3.505s.453.28.959.622z"/></symbol><symbol id="icon-auth-password" viewBox="0 0 32 32"><path d="M14.751 2.963c-2.978.502-5.406 2.654-6.24 5.535-.257.886-.297 1.331-.297 3.257v1.783l-.36.034c-.999.096-1.616.243-2.174.521-.962.48-1.658 1.15-2.16 2.08-.278.515-.398.874-.517 1.544-.086.488-.097.887-.097 3.616 0 3.763.04 4.095.614 5.159.499.926 1.199 1.599 2.16 2.079.421.21.745.312 1.36.427.472.088 1.093.095 8.96.095s8.488-.007 8.96-.095c.84-.157 1.342-.359 2-.803.826-.558 1.554-1.522 1.858-2.462.256-.793.275-1.099.275-4.4 0-3.302-.019-3.608-.275-4.4-.368-1.139-1.229-2.155-2.326-2.747-.651-.351-1.25-.507-2.346-.614l-.36-.034v-1.783c0-1.926-.04-2.371-.297-3.257A7.813 7.813 0 0 0 19.868 3.9a7.692 7.692 0 0 0-2.67-.939c-.611-.098-1.855-.097-2.448.002zm2.369 2.299c1.742.344 3.322 1.671 3.994 3.355.363.91.4 1.197.403 3.169l.002 1.734h-11.04l.002-1.734c.002-1.97.038-2.256.401-3.165.871-2.181 3.074-3.599 5.383-3.465.25.015.634.062.854.105zm6.456 10.576c.543.027 1.079.085 1.28.136.856.221 1.617.981 1.837 1.835.247.96.247 6.089 0 7.048-.219.854-.981 1.615-1.835 1.835-.601.155-2.011.185-8.857.185s-8.256-.03-8.857-.185c-.855-.221-1.616-.982-1.835-1.835-.248-.96-.247-6.09 0-7.048.221-.856.979-1.613 1.839-1.838.191-.049.695-.107 1.12-.129 1.126-.057 14.206-.061 15.31-.005z"/></symbol><symbol id="icon-auth-close" viewBox="0 0 32 32"><path d="M7.626 6.245c-.291.085-.749.427-1.029.774-.432.533-.509 1.054-.24 1.616.088.184 1.011 1.143 3.665 3.806l3.547 3.56-3.551 3.56c-3.907 3.918-3.806 3.799-3.805 4.44 0 .449.157.77.586 1.199.429.43.75.586 1.199.586.634 0 .526.093 4.44-3.808l3.56-3.547 3.56 3.547c3.914 3.901 3.806 3.808 4.44 3.808.449 0 .77-.157 1.199-.586.43-.429.586-.75.586-1.199 0-.634.093-.526-3.808-4.44l-3.547-3.56 3.547-3.56c3.901-3.914 3.808-3.806 3.808-4.44 0-.449-.157-.77-.586-1.199-.429-.43-.75-.586-1.199-.586-.634 0-.526-.093-4.44 3.808l-3.56 3.547-3.56-3.547c-2.721-2.712-3.619-3.576-3.814-3.67-.29-.138-.728-.186-1-.109z"/></symbol><symbol id="icon-auth-arrow" viewBox="0 0 32 32"><path d="M1.333 6h13.334m0 0-5-5m5 5-5 5" stroke="#EAC645" stroke-width="2" stroke-linecap="round" stroke-linejoin="round"/></symbol><symbol id="arrow" viewBox="0 0 32 32"><path fill="#4f2ee8" style="fill:var(--color1,#4f2ee8)" d="M15.053 17.867a1.334 1.334 0 0 0 1.894 0l6.107-6.12a1.334 1.334 0 1 1 1.894 1.88l-6.12 6.12a4.001 4.001 0 0 1-5.654 0l-6.12-6.12a1.337 1.337 0 0 1 .434-2.172 1.331 1.331 0 0 1 1.46.292l6.107 6.12z"/></symbol></defs></svg><svg aria-hidden="true" style="width:0;height:0;position:absolute;overflow:hidden" xmlns="http://www.w3.org/2000/svg"><defs><symbol id="arrow" viewBox="0 0 32 32"><path fill="#4f2ee8" style="fill:var(--color1,#4f2ee8)" d="M15.053 17.867a1.334 1.334 0 0 0 1.894 0l6.107-6.12a1.334 1.334 0 1 1 1.894 1.88l-6.12 6.12a4.001 4.001 0 0 1-5.654 0l-6.12-6.12a1.337 1.337 0 0 1 .434-2.172 1.331 1.331 0 0 1 1.46.292l6.107 6.12z"/></symbol><symbol id="trident" viewBox="0 0 20 32"><path fill="#fff" style="fill:var(--color2,#fff)" d="M9.005 30.888a8.64 8.64 0 0 1-3.414-5.351H0V2.42c2.991 1.443 5.153 4.599 5.388 7.876l.846 6.493-.407-.045c-.893 0-1.676.812-1.676 1.608 0 .752.595 1.383 1.378 1.548l1.018.226c1.676-3.051 2.631-6.042 2.631-8.973 0-2.645-.36-5.291-.423-7.996 0-1.202.486-2.3 1.253-3.156.783.857 1.253 1.954 1.253 3.156 0 2.705-.423 5.351-.423 7.996 0 2.931.955 5.922 2.631 8.973l1.018-.226c.783-.165 1.378-.812 1.378-1.548 0-.812-.783-1.608-1.676-1.608l-.423.06.846-6.493c.423-3.277 2.396-6.448 5.388-7.876v23.117h-5.576c-.423 2.179-1.613 4.148-3.414 5.351-.423.286-.783.631-1.018 1.097-.219-.466-.579-.812-.987-1.112zM2.647 17.556c.235-.857.893-1.608 1.738-2.074l-.658-5.351a8.288 8.288 0 0 0-2.036-4.374v11.784h.955v.015zm2.819 6.373c0-.812.125-1.548.298-2.3l-.783-.18c-1.143-.346-2.036-1.203-2.334-2.3h-.955v4.78h3.774zm3.712 0c0-.977-.783-1.834-1.801-1.954-.172.631-.298 1.263-.298 1.954h2.099zm0 1.623H7.314c.298 1.263.955 2.42 1.864 3.397v-3.397zm2.631-5.005c-.72-1.262-1.378-2.585-1.801-3.968-.423 1.383-1.081 2.706-1.801 3.968.72.165 1.316.631 1.801 1.157.486-.526 1.081-.992 1.801-1.157zm1.143 3.382c0-.691-.125-1.323-.297-1.954-1.018.12-1.801.977-1.801 1.954h2.099zm-.235 1.623h-1.864v3.397c.908-.992 1.566-2.134 1.864-3.397zm5.623-1.623v-4.78h-.955c-.298 1.097-1.206 1.954-2.334 2.3l-.783.18c.172.752.298 1.488.298 2.3h3.774zm0-6.373V5.757c-1.081 1.202-1.864 2.706-2.036 4.374l-.658 5.351c.846.466 1.504 1.203 1.739 2.074h.955z"/></symbol></defs></svg>