<svg width="38" height="38" fill="none" xmlns="http://www.w3.org/2000/svg"><circle cx="19" cy="19" fill="#4F2EE8" r="19"/><path d="M16.25 10.75h5.5m-11 2.75h16.5m-1.833 0-.643 9.643c-.097 1.446-.145 2.17-.457 2.718a2.75 2.75 0 0 1-1.19 1.114c-.569.275-1.293.275-2.743.275h-2.768c-1.45 0-2.175 0-2.742-.275a2.75 2.75 0 0 1-1.19-1.114c-.313-.548-.361-1.272-.458-2.718l-.643-9.643m4.584 4.125v4.583m3.666-4.583v4.583" stroke="#fff" stroke-width="2" stroke-linecap="round" stroke-linejoin="round"/></svg>